<?xml version="1.0" encoding="UTF-8"?>
<svg version="1.1" xmlns="http://www.w3.org/2000/svg" width="512" height="512">
<path d="M0 0 C1.32837891 0.31348389 1.32837891 0.31348389 2.68359375 0.63330078 C28.64328705 6.92070836 52.81553502 18.80320335 74 35 C74.90621094 35.68191406 75.81242187 36.36382812 76.74609375 37.06640625 C101.78883876 56.67640122 119.72410441 81.90845161 124 114 C124.38164204 119.10567545 124.61844924 124.21168698 124.83288574 129.32672119 C126.78019464 174.43407547 136.57695297 217.0524205 157.6784668 257.19287109 C159 260 159 260 159 263 C159.84304688 262.67515625 159.84304688 262.67515625 160.703125 262.34375 C172.64916639 258.38616574 187.61564704 257.95367597 199.39453125 262.671875 C212.12852996 269.16296879 221.78909056 278.89971657 226.875 292.375 C229.9974279 304.19161337 229.56932987 319.07428523 224 330 C217.0119171 341.95238931 206.86276503 351.90552728 193.15625 355.52734375 C178.78704114 357.67916834 165.02264878 356.87405614 152.6875 348.6875 C142.44843422 340.95495752 133.96038635 331.09084438 132 318 C131.08368133 306.81544909 131.23266442 296.35485793 136 286 C136.30808594 285.32195312 136.61617188 284.64390625 136.93359375 283.9453125 C137.57771595 282.60775731 138.27902921 281.29774743 139 280 C138.19046875 279.74863281 137.3809375 279.49726563 136.546875 279.23828125 C133.15108203 278.0527456 129.91914763 276.68473569 126.63256836 275.2331543 C106.89101044 266.56903988 86.58339846 262.1076416 65.0625 261.2109375 C62 261 62 261 60 260 C60.11782837 261.15495972 60.11782837 261.15495972 60.23803711 262.33325195 C62.31245956 286.74841643 58.01338541 309.16620256 52.5 332.8125 C52.32063274 333.58200108 52.14126549 334.35150215 51.95646286 335.14432144 C49.7040707 344.77929381 47.38331687 354.39654856 45 364 C40.28184105 364.12242876 36.12315972 363.77304349 31.52734375 362.71484375 C30.30934082 362.43527832 29.09133789 362.15571289 27.83642578 361.86767578 C26.53652393 361.55870871 25.23688722 361.24862428 23.9375 360.9375 C23.27216248 360.7800531 22.60682495 360.6226062 21.92132568 360.46038818 C9.74098706 357.5672524 -2.18584226 354.14970687 -14 350 C-14.9394043 349.67306152 -15.87880859 349.34612305 -16.84667969 349.00927734 C-48.27455397 337.96180802 -77.70707578 323.10504695 -105 304 C-106.010625 303.29359375 -107.02125 302.5871875 -108.0625 301.859375 C-125.18381693 289.61564255 -141.27172993 276.09916163 -156.09741211 261.16333008 C-157.82248477 259.42745269 -159.55811991 257.7026491 -161.29492188 255.97851562 C-167.98776899 249.29398334 -174.14386445 242.43826402 -180 235 C-181.01227509 233.76807306 -182.02749554 232.5385548 -183.046875 231.3125 C-211.03214409 197.19659399 -252.68652837 136.87737817 -252 91 C-251.23595352 90.63685196 -250.47190704 90.27370392 -249.68470764 89.89955139 C-242.38786912 86.42344336 -235.10905145 82.91244028 -227.84711552 79.36396122 C-224.11547597 77.54198062 -220.37881544 75.73281827 -216.6262207 73.9543457 C-199.61304624 65.87975168 -185.22825889 58.43347616 -172.76641846 43.88934326 C-164.03582729 34.55119151 -152.04479892 27.25782796 -141 21 C-140.42604492 20.67193359 -139.85208984 20.34386719 -139.26074219 20.00585938 C-123.04099438 10.80029442 -106.12072782 4.38851315 -88 0 C-87.13181641 -0.21317871 -86.26363281 -0.42635742 -85.36914062 -0.64599609 C-58.33971762 -6.96254584 -26.92342215 -6.56484789 0 0 Z " fill="#EC4140" transform="translate(268,76)"/>
<path d="M0 0 C2.41889151 1.85221665 3.33618734 3.8721313 4.67166138 6.60292053 C5.21846558 7.69693176 5.76526978 8.79094299 6.3286438 9.91810608 C6.90848022 11.09929016 7.48831665 12.28047424 8.08572388 13.49745178 C9.32839037 15.97198976 10.58494961 18.4392263 11.84744263 20.90370178 C12.1670546 21.5277037 12.48666656 22.15170563 12.81596375 22.7946167 C20.84988066 38.34693275 30.49812012 53.10804969 40.71072388 67.30995178 C41.25728638 68.07291565 41.80384888 68.83587952 42.36697388 69.6219635 C48.99055106 78.83472361 55.75787693 87.83422497 63.20291138 96.39979553 C65.59190248 99.17206714 67.87332092 102.0064002 70.14822388 104.87245178 C73.96124545 109.56856094 78.08957131 113.80896458 82.40530396 118.03407288 C85.18386999 120.75878555 87.83071808 123.51980339 90.33572388 126.49745178 C93.55723937 130.2674747 97.13398037 133.49608949 100.85525513 136.76698303 C102.92811913 138.61299461 104.95968644 140.47496451 106.97244263 142.38417053 C114.30492586 149.33505686 121.83296879 155.78991035 129.87576294 161.9032135 C131.74070273 163.3329345 133.58236908 164.78882863 135.42166138 166.25135803 C154.59011337 181.37550893 175.2304116 194.72384509 196.71072388 206.30995178 C197.61709595 206.80156799 198.52346802 207.2931842 199.45730591 207.79969788 C213.18373925 215.20840657 227.17593286 221.90828881 241.41848755 228.26356506 C243.54224433 229.23304228 245.62571912 230.26044987 247.71072388 231.30995178 C247.03102039 239.36271007 245.33090273 247.09870343 243.55056763 254.97010803 C243.23769467 256.36962691 242.92524757 257.76924106 242.61320496 259.16894531 C241.79709953 262.82436858 240.97527543 266.47848223 240.15219116 270.13233948 C239.3107744 273.8723998 238.47485879 277.61368897 237.63845825 281.35487366 C236.00121516 288.67443615 234.3579194 295.9926218 232.71072388 303.30995178 C227.99256493 303.43238055 223.8338836 303.08299527 219.23806763 302.02479553 C218.0200647 301.7452301 216.80206177 301.46566467 215.54714966 301.17762756 C214.24724781 300.86866049 212.9476111 300.55857606 211.64822388 300.24745178 C210.98288635 300.09000488 210.31754883 299.93255798 209.63204956 299.77033997 C197.45171094 296.87720419 185.52488162 293.45965865 173.71072388 289.30995178 C172.77131958 288.98301331 171.83191528 288.65607483 170.86404419 288.31922913 C139.43616991 277.2717598 110.00364809 262.41499873 82.71072388 243.30995178 C81.70009888 242.60354553 80.68947388 241.89713928 79.64822388 241.16932678 C62.52690695 228.92559433 46.43899395 215.40911342 31.61331177 200.47328186 C29.8882391 198.73740447 28.15260397 197.01260088 26.415802 195.28846741 C19.72295488 188.60393512 13.56685942 181.7482158 7.71072388 174.30995178 C6.69844879 173.07802484 5.68322833 171.84850658 4.66384888 170.62245178 C-23.32142022 136.50654577 -64.97580449 76.18732995 -64.28927612 30.30995178 C-56.28402083 26.21472078 -48.27028621 22.13674119 -40.24513626 18.08063316 C-36.51915448 16.19675052 -32.79638766 14.30702073 -29.08029175 12.40370178 C-25.49518808 10.56774846 -21.90253463 8.7474559 -18.30406952 6.93783951 C-16.9312974 6.24405179 -15.56135858 5.54462885 -14.19434357 4.83956528 C-12.2816446 3.85425663 -10.35992624 2.88931756 -8.43478394 1.92860413 C-7.34224304 1.37345123 -6.24970215 0.81829834 -5.12405396 0.24632263 C-2.28927612 -0.69004822 -2.28927612 -0.69004822 0 0 Z " fill="#D6DFEE" transform="translate(80.28927612304688,136.69004821777344)"/>
<path d="M0 0 C0 0.33 0 0.66 0 1 C-1.32837891 0.9685791 -1.32837891 0.9685791 -2.68359375 0.93652344 C-25.69905583 0.12272315 -25.69905583 0.12272315 -48 5 C-49.65322266 5.5259375 -49.65322266 5.5259375 -51.33984375 6.0625 C-73.6691367 13.70915442 -90.93813289 30.85500209 -101.24731445 51.77368164 C-111.79169227 74.25994958 -113.99538974 100.68993295 -105.828125 124.296875 C-99.97555989 139.7815235 -91.85223828 152.71013646 -79.83984375 164.19921875 C-78.06757464 165.93386007 -76.47398232 167.73094363 -74.875 169.625 C-70.86305113 174.30560702 -66.462932 178.59003941 -62.06201172 182.90087891 C-59.29619847 185.62673042 -56.64814258 188.35371055 -54.1953125 191.3671875 C-52.27234804 194.03072243 -52.27234804 194.03072243 -50 195 C-50 195.66 -50 196.32 -50 197 C-49.43700195 197.23630127 -48.87400391 197.47260254 -48.29394531 197.71606445 C-45.4674509 199.29807106 -43.56395401 201.22864009 -41.296875 203.54296875 C-39.94916016 204.90711914 -39.94916016 204.90711914 -38.57421875 206.29882812 C-37.63243069 207.26134531 -36.69102645 208.22423819 -35.75 209.1875 C-29.68120333 215.37152699 -23.58611118 221.36999704 -17 227 C-15.22429779 228.61967817 -13.45291693 230.24411718 -11.6875 231.875 C-6.2850248 236.79577302 -0.69762419 241.4270049 5 246 C6.13198786 246.92389449 7.26347487 247.8484029 8.39453125 248.7734375 C15.26494233 254.36498508 22.26138403 259.74307606 29.4375 264.9375 C30.1704126 265.46891602 30.9033252 266.00033203 31.65844727 266.54785156 C35.19499149 269.08410833 38.69174255 271.38275435 42.50390625 273.484375 C45.8917214 275.56850977 45.8917214 275.56850977 46.78125 279.11328125 C46.52083333 282.07552083 46.26041667 285.03776042 46 288 C36.07125342 284.3941745 26.60586032 280.13403167 17.125 275.5 C16.40423279 275.14862976 15.68346558 274.79725952 14.94085693 274.4352417 C-18.58195976 258.05491093 -50.86752516 238.04974834 -79.08984375 213.5078125 C-81.86211536 211.11882139 -84.69644842 208.83740296 -87.5625 206.5625 C-92.26024176 202.74815283 -96.5018165 198.61812445 -100.72851562 194.30102539 C-103.41120683 191.56543235 -106.12432745 188.95847091 -109.0625 186.5 C-113.99014069 182.29372527 -118.20860717 177.42830669 -122.52929688 172.61914062 C-123.99622908 171.00415152 -125.48525621 169.41324278 -126.984375 167.828125 C-133.60954289 160.80843551 -139.7157732 153.53810332 -145.56835938 145.86425781 C-147.03402705 143.95569057 -148.52238433 142.06673941 -150.015625 140.1796875 C-167.59844048 117.80255322 -182.22330527 93.60737512 -195.59960938 68.54785156 C-196.54102861 66.83504627 -197.52266401 65.14379819 -198.54101562 63.47558594 C-199.01732422 62.68700195 -199.49363281 61.89841797 -199.984375 61.0859375 C-200.41975586 60.39290527 -200.85513672 59.69987305 -201.30371094 58.98583984 C-202 57 -202 57 -201.3059082 54.94555664 C-190.55324811 38.92612343 -171.52391963 26.36222081 -155 17 C-154.42604492 16.67193359 -153.85208984 16.34386719 -153.26074219 16.00585938 C-137.04099438 6.80029442 -120.12072782 0.38851315 -102 -4 C-100.69772461 -4.31976807 -100.69772461 -4.31976807 -99.36914062 -4.64599609 C-67.50086176 -12.09334592 -30.99498043 -10.25890197 0 0 Z " fill="#C52C37" transform="translate(282,80)"/>
<path d="M0 0 C0.66 0 1.32 0 2 0 C2.23485107 0.61593018 2.46970215 1.23186035 2.71166992 1.86645508 C19.35441461 45.20618825 41.69853709 83.8521851 72 119 C72.90492187 120.05767578 72.90492187 120.05767578 73.828125 121.13671875 C77.57587495 125.47573993 81.44152099 129.70857427 85.3125 133.9375 C85.84093506 134.51822266 86.36937012 135.09894531 86.91381836 135.69726562 C89.63472643 138.75228934 89.63472643 138.75228934 93 141 C93 141.66 93 142.32 93 143 C93.59683594 143.26683594 94.19367188 143.53367187 94.80859375 143.80859375 C97.04574324 145.02486932 98.34420067 146.20357259 100.0625 148.0625 C104.68920433 152.81636533 109.82881485 156.85787422 115 161 C116.11422037 161.91552492 117.22746831 162.83223434 118.33984375 163.75 C154.91592286 193.75037688 210.86140623 232.10514832 260 230 C271.37343096 228.78451883 281.72523174 222.73209155 289 214 C291.46416744 209.98631686 293.46093646 205.76008288 295.40625 201.4765625 C297 198 297 198 299 195 C303.29 196.98 307.58 198.96 312 201 C311.32029651 209.05275829 309.62017885 216.78875164 307.83984375 224.66015625 C307.52697079 226.05967513 307.21452369 227.45928928 306.90248108 228.85899353 C306.08637565 232.5144168 305.26455156 236.16853045 304.44146729 239.8223877 C303.60005052 243.56244802 302.76413491 247.30373719 301.92773438 251.04492188 C300.29049128 258.36448437 298.64719552 265.68267002 297 273 C292.28184105 273.12242876 288.12315972 272.77304349 283.52734375 271.71484375 C282.30934082 271.43527832 281.09133789 271.15571289 279.83642578 270.86767578 C278.53652393 270.55870871 277.23688722 270.24862428 275.9375 269.9375 C275.27216248 269.7800531 274.60682495 269.6226062 273.92132568 269.46038818 C261.74098706 266.5672524 249.81415774 263.14970687 238 259 C237.0605957 258.67306152 236.12119141 258.34612305 235.15332031 258.00927734 C203.72544603 246.96180802 174.29292422 232.10504695 147 213 C145.989375 212.29359375 144.97875 211.5871875 143.9375 210.859375 C126.81618307 198.61564255 110.72827007 185.09916163 95.90258789 170.16333008 C94.17751523 168.42745269 92.44188009 166.7026491 90.70507812 164.97851562 C84.01223101 158.29398334 77.85613555 151.43826402 72 144 C70.98772491 142.76807306 69.97250446 141.5385548 68.953125 140.3125 C41.61801645 106.98918297 -1.88999924 45.03128621 0 0 Z " fill="#C1CFE8" transform="translate(16,167)"/>
<path d="M0 0 C10.23906578 7.73254248 18.72711365 17.59665562 20.6875 30.6875 C22.11678455 48.13329299 19.50517553 61.04058775 8.03125 74.65234375 C0.02533375 83.28136197 -10.26078398 88.35475631 -21.96875 89.00390625 C-38.65548452 89.56319388 -50.64291019 85.89777041 -63.0625 74.375 C-73.76858536 63.06290981 -76.07098255 50.5956964 -75.671875 35.56640625 C-75.24458388 27.54231259 -72.84329303 20.33504149 -68.3125 13.6875 C-67.6525 13.6875 -66.9925 13.6875 -66.3125 13.6875 C-66.05597656 13.10742188 -65.79945313 12.52734375 -65.53515625 11.9296875 C-61.04387164 3.69327419 -51.65012774 -2.9189983 -43 -6.1875 C-28.50997547 -9.97440782 -12.47189201 -8.27730949 0 0 Z " fill="#D6DFEE" transform="translate(475.3125,343.3125)"/>
<path d="M0 0 C0.66 0.33 1.32 0.66 2 1 C1.401875 1.78375 0.80375 2.5675 0.1875 3.375 C-6.00952742 12.88004918 -6.55466144 25.12383255 -4.4375 36.0625 C-0.43828746 48.78221766 6.28409658 59.64355333 18.28295898 66.00805664 C29.52654972 71.68126405 41.14168733 74.16558308 53.53125 71.13671875 C55.51965137 70.45997323 57.4954364 69.74366795 59.44921875 68.97265625 C61.96243402 68.01432455 64.35373809 67.45296375 67 67 C60.65272491 77.40953115 51.11047677 85.36855282 39.15625 88.52734375 C24.78704114 90.67916834 11.02264878 89.87405614 -1.3125 81.6875 C-11.55156578 73.95495752 -20.03961365 64.09084438 -22 51 C-23.07706263 37.85341435 -22.67533377 25.26118524 -15 14 C-14.34 14 -13.68 14 -13 14 C-12.75121094 13.42507813 -12.50242187 12.85015625 -12.24609375 12.2578125 C-10.82026062 9.67432802 -9.16797328 7.9373444 -7.0625 5.875 C-6.02802734 4.85019531 -6.02802734 4.85019531 -4.97265625 3.8046875 C-3 2 -3 2 0 0 Z " fill="#C1CEE8" transform="translate(422,343)"/>
<path d="M0 0 C3.66706325 10.29242183 6.44557919 20.49157086 8.625 31.1875 C8.84811859 32.26292557 8.84811859 32.26292557 9.07574463 33.3600769 C10.84654227 41.89681005 12.54928964 50.44363136 13.875 59.0625 C13.98279785 59.75432373 14.0905957 60.44614746 14.20166016 61.15893555 C16.20075074 75.35919834 16.13486922 89.69547202 16.0625 104 C16.05746748 105.7578112 16.05290771 107.51562383 16.04882812 109.2734375 C16.03884165 113.51569041 16.01924413 117.75773942 16 122 C10.72 122 5.44 122 0 122 C-0.04898437 119.78667969 -0.09796875 117.57335937 -0.1484375 115.29296875 C-1.00194741 78.78052991 -4.21545839 44.55210778 -14.43676758 9.29882812 C-15 7 -15 7 -15 4 C-13.25307205 3.32532438 -11.50231475 2.66055844 -9.75 2 C-8.77546875 1.62875 -7.8009375 1.2575 -6.796875 0.875 C-4 0 -4 0 0 0 Z " fill="#C52C37" transform="translate(320,214)"/>
</svg>
